<?xml version="1.0" standalone="no"?>
<!DOCTYPE svg PUBLIC "-//W3C//DTD SVG 20010904//EN"
 "http://www.w3.org/TR/2001/REC-SVG-20010904/DTD/svg10.dtd">
<svg version="1.0" xmlns="http://www.w3.org/2000/svg"
 width="400.000000pt" height="400.000000pt" viewBox="0 0 400.000000 400.000000"
 preserveAspectRatio="xMidYMid meet">
<metadata>
Created by potrace 1.14, written by Peter Selinger 2001-2017
</metadata>
<g transform="translate(0.000000,400.000000) scale(0.100000,-0.100000)"
fill="#000000" stroke="none">
<path d="M1037 3993 c-10 -2 -22 -16 -28 -29 -16 -43 -8 -161 16 -216 5 -12 2
-16 -12 -14 -27 4 -62 -14 -70 -38 -21 -62 12 -199 69 -291 23 -35 128 -133
157 -145 l28 -11 -1 -156 -1 -156 -52 -12 c-125 -28 -204 -129 -204 -260 0
-134 95 -245 220 -258 59 -6 57 -2 76 -134 4 -29 31 -103 61 -168 44 -98 154
-227 244 -288 57 -39 59 -42 58 -99 0 -42 -3 -48 -21 -49 -12 0 -76 -1 -142
-3 -105 -2 -127 -5 -175 -28 -96 -45 -160 -125 -184 -227 -8 -33 -12 -62 -9
-65 8 -7 -28 -23 -72 -31 -68 -12 -188 -70 -232 -112 -7 -6 -23 -20 -35 -30
-69 -55 -162 -210 -174 -289 -3 -21 -9 -57 -14 -79 -4 -22 -8 -212 -8 -423 l0
-382 1467 2 1466 3 1 390 c0 215 -3 404 -7 420 -4 17 -10 48 -14 70 -16 110
-148 294 -249 347 -11 6 -23 14 -26 17 -11 14 -127 60 -181 71 l-56 13 -6 53
c-11 105 -85 204 -187 252 -50 23 -68 26 -195 28 l-140 2 -3 55 -2 56 47 32
c54 36 144 124 188 184 69 92 126 234 140 348 4 31 12 57 19 58 6 0 20 2 31 4
11 2 36 7 55 10 34 7 83 38 119 76 64 69 82 199 40 286 -39 80 -99 129 -182
148 l-52 12 -2 205 c-1 113 -7 224 -13 247 -5 22 -15 60 -21 83 -13 54 -64
162 -100 211 -116 159 -275 264 -464 303 -43 9 -206 12 -605 12 -300 0 -553
-2 -563 -5z"/>
</g>
</svg>
